<svg width="20" height="20" viewBox="0 0 20 20" fill="none" xmlns="http://www.w3.org/2000/svg">
<g clip-path="url(#clip0_21_879)">
<path fill-rule="evenodd" clip-rule="evenodd" d="M9.11178 3.27845C10.0104 2.37983 11.2292 1.875 12.5 1.875H15C15.3452 1.875 15.625 2.15482 15.625 2.5V5.83333C15.625 6.17851 15.3452 6.45833 15 6.45833H12.5C12.4447 6.45833 12.3918 6.48028 12.3527 6.51935C12.3136 6.55842 12.2917 6.61141 12.2917 6.66667V7.70833H15C15.1925 7.70833 15.3742 7.797 15.4926 7.9487C15.6111 8.1004 15.653 8.2982 15.6063 8.48492L14.773 11.8183C14.7035 12.0965 14.4535 12.2917 14.1667 12.2917H12.2917V17.5C12.2917 17.8452 12.0118 18.125 11.6667 18.125H8.33334C7.98816 18.125 7.70834 17.8452 7.70834 17.5V12.2917H5.83334C5.48816 12.2917 5.20834 12.0118 5.20834 11.6667V8.33333C5.20834 7.98816 5.48816 7.70833 5.83334 7.70833H7.70834V6.66667C7.70834 5.39584 8.21317 4.17706 9.11178 3.27845ZM12.5 3.125C11.5607 3.125 10.6599 3.49814 9.99567 4.16233C9.33147 4.82652 8.95834 5.72736 8.95834 6.66667V8.33333C8.95834 8.67851 8.67851 8.95833 8.33334 8.95833H6.45834V11.0417H8.33334C8.67851 11.0417 8.95834 11.3215 8.95834 11.6667V16.875H11.0417V11.6667C11.0417 11.3215 11.3215 11.0417 11.6667 11.0417H13.6787L14.1995 8.95833H11.6667C11.3215 8.95833 11.0417 8.67851 11.0417 8.33333V6.66667C11.0417 6.27989 11.1953 5.90896 11.4688 5.63547C11.7423 5.36198 12.1132 5.20833 12.5 5.20833H14.375V3.125H12.5Z" fill="#047687"/>
</g>
<defs>
<clipPath id="clip0_21_879">
<rect width="20" height="20" fill="white"/>
</clipPath>
</defs>
</svg>
