<svg width="20" height="20" viewBox="0 0 20 20" fill="none" xmlns="http://www.w3.org/2000/svg">
<path fill-rule="evenodd" clip-rule="evenodd" d="M16.2004 3.793C15.3914 2.98366 14.4304 2.34231 13.3725 1.90588C12.3147 1.46945 11.181 1.24656 10.0367 1.25004C5.23437 1.25004 1.325 5.13987 1.32305 9.9219C1.32092 11.4446 1.7223 12.9407 2.48633 14.2578L1.25 18.75L5.86913 17.5441C7.14773 18.2368 8.57902 18.5993 10.0332 18.5988H10.0367C14.8387 18.5988 18.7476 14.7086 18.75 9.92697C18.7529 8.78657 18.529 7.65697 18.0913 6.60391C17.6535 5.55085 17.0108 4.59535 16.2004 3.793ZM10.0367 17.1352H10.0336C8.73725 17.1355 7.46448 16.7886 6.34765 16.1305L6.0832 15.9742L3.34218 16.6898L4.07382 14.0301L3.90156 13.7567C3.17671 12.6091 2.79267 11.2792 2.79414 9.9219C2.79414 5.94808 6.04452 2.71488 10.0394 2.71488C11.9558 2.71146 13.7951 3.46938 15.1527 4.82195C16.5104 6.17452 17.2752 8.01097 17.2789 9.92736C17.2773 13.9016 14.0285 17.1352 10.0367 17.1352ZM14.009 11.7371C13.7914 11.6285 12.7199 11.1043 12.5215 11.032C12.323 10.9598 12.1765 10.9235 12.0316 11.1406C11.8867 11.3578 11.4691 11.8438 11.3422 11.9903C11.2152 12.1367 11.0883 12.1527 10.8707 12.0442C10.6531 11.9356 9.95116 11.707 9.11952 10.9688C8.47225 10.3942 8.03554 9.68479 7.90858 9.46799C7.78163 9.25119 7.89491 9.13362 8.0039 9.0258C8.10194 8.92854 8.22147 8.77268 8.33046 8.64612C8.43944 8.51955 8.47577 8.42893 8.54804 8.2844C8.6203 8.13987 8.58436 8.01331 8.53007 7.9051C8.47577 7.7969 8.04022 6.73011 7.85897 6.29612C7.68202 5.87347 7.50272 5.93089 7.36913 5.92425C7.24218 5.918 7.09569 5.91644 6.95155 5.91644C6.84136 5.9193 6.73295 5.94486 6.63307 5.9915C6.5332 6.03814 6.44402 6.10488 6.37109 6.18753C6.17148 6.40472 5.60898 6.92971 5.60898 7.99534C5.60898 9.06096 6.39023 10.0922 6.49804 10.2367C6.60585 10.3813 8.03319 12.5699 10.2172 13.5086C10.6227 13.6823 11.0371 13.8346 11.4586 13.9649C11.9801 14.1297 12.4547 14.1067 12.8297 14.0508C13.248 13.9887 14.1187 13.5266 14.2996 13.0203C14.4804 12.5141 14.4808 12.0805 14.4265 11.9903C14.3722 11.9 14.2269 11.8453 14.009 11.7371Z" fill="#047687"/>
</svg>
