<svg width="20" height="20" viewBox="0 0 20 20" fill="none" xmlns="http://www.w3.org/2000/svg">
<path fill-rule="evenodd" clip-rule="evenodd" d="M6.875 1.25C6.18464 1.25 5.625 1.80964 5.625 2.5V17.5C5.625 18.1904 6.18464 18.75 6.875 18.75H13.125C13.8154 18.75 14.375 18.1904 14.375 17.5V2.5C14.375 1.80964 13.8154 1.25 13.125 1.25H6.875ZM4.375 2.5C4.375 1.11929 5.49429 0 6.875 0H13.125C14.5057 0 15.625 1.11929 15.625 2.5V17.5C15.625 18.8807 14.5057 20 13.125 20H6.875C5.49429 20 4.375 18.8807 4.375 17.5V2.5Z" fill="#047687"/>
<path fill-rule="evenodd" clip-rule="evenodd" d="M6.25 0.625C6.25 0.279822 6.52982 0 6.875 0H7.8125C8.06114 0 8.2996 0.0987716 8.47541 0.274587C8.65123 0.450404 8.75 0.688861 8.75 0.9375H11.25C11.25 0.688861 11.3488 0.450404 11.5246 0.274587C11.7004 0.0987716 11.9389 0 12.1875 0H13.125C13.4702 0 13.75 0.279822 13.75 0.625C13.75 0.970178 13.4702 1.25 13.125 1.25H12.4603C12.405 1.46438 12.2931 1.66215 12.1339 1.82138C11.8995 2.0558 11.5815 2.1875 11.25 2.1875H8.75C8.41848 2.1875 8.10054 2.0558 7.86612 1.82138C7.70688 1.66215 7.59505 1.46438 7.53969 1.25H6.875C6.52982 1.25 6.25 0.970178 6.25 0.625Z" fill="#047687"/>
</svg>
